<?xml version="1.0" encoding="UTF-8"?><svg xmlns="http://www.w3.org/2000/svg" class="header" enable-background="new 0 0 116 25" fill="none" height="24px" preserveAspectRatio="xMidYMid meet" viewBox="0 0 116 25" width="112px"><path d="M79.8482 4.92719C78.748 4.92719 77.8677 4.05446 77.8677 2.96356C77.8677 1.87265 78.748 0.96875 79.8482 0.96875C80.9485 0.96875 81.8601 1.87265 81.8601 2.96356C81.8601 4.05446 80.9485 4.92719 79.8482 4.92719Z" fill="#231F20"/><path d="M26.6894 24.2832C31.4466 24.2832 35.303 20.4596 35.303 15.7429C35.303 11.0262 31.4466 7.20264 26.6894 7.20264C21.9323 7.20264 18.0759 11.0262 18.0759 15.7429C18.0759 20.4596 21.9323 24.2832 26.6894 24.2832Z" fill="#DB3939"/><path d="M0 1.31177H3.70949V9.85203H3.77236C4.21247 9.10398 4.90407 8.4806 5.81572 7.9819C6.72737 7.4832 7.7019 7.23385 8.83361 7.23385C10.6883 7.23385 12.1344 7.70138 13.1718 8.63644C14.2407 9.57151 14.7751 11.0053 14.7751 12.8754V24.3144H11.0341V13.8416C11.0027 12.5325 10.7198 11.5975 10.1854 11.0053C9.65095 10.4131 8.86504 10.1325 7.73334 10.1325C7.10461 10.1325 6.53875 10.2572 6.03577 10.4754C5.53279 10.6936 5.12412 11.0053 4.77832 11.4105C4.43252 11.8157 4.14959 12.2832 3.96098 12.8131C3.77236 13.3429 3.67805 13.904 3.67805 14.5274V24.3455H0V1.31177Z" fill="#231F20"/><path d="M37.8807 7.63887H40.6786V2.65186H44.3881V7.63887H47.7203V10.3817H44.3881V19.2648C44.3881 19.6389 44.4195 19.9817 44.4509 20.2622C44.4824 20.5428 44.5452 20.7921 44.671 20.9791C44.7967 21.1661 44.9539 21.322 45.2054 21.4155C45.4569 21.509 45.7712 21.5713 46.1799 21.5713C46.4314 21.5713 46.7143 21.5713 46.9658 21.5402C47.2173 21.5402 47.5002 21.4778 47.7517 21.4155V24.2519C47.3431 24.283 46.9344 24.3454 46.5572 24.3765C46.1799 24.4077 45.7713 24.4389 45.3626 24.4389C44.3881 24.4389 43.6021 24.3454 43.0049 24.1583C42.4076 23.9713 41.936 23.722 41.6217 23.348C41.2759 23.0051 41.0558 22.5376 40.9301 22.0077C40.8043 21.4778 40.7414 20.8545 40.71 20.1687V10.3817H37.9122V7.63887H37.8807Z" fill="#231F20"/><path d="M49.9838 7.63892H53.9133L57.1827 20.0753H57.2456L60.3892 7.63892H64.1301L67.148 20.0753H67.2109L70.6374 7.63892H74.4098L69.1599 24.3142H65.3561L62.2439 11.9402H62.1811L59.1003 24.3142H55.2022L49.9838 7.63892Z" fill="#231F20"/><path d="M78.0249 7.63892H81.7344V24.2831H78.0249V7.63892Z" fill="#231F20"/><path d="M86.89 7.639H90.3794V10.8494H90.4423C90.5366 10.413 90.7566 9.94549 91.071 9.5403C91.3854 9.10394 91.7626 8.72991 92.2027 8.35588C92.6428 8.01303 93.1458 7.73251 93.6802 7.51433C94.2146 7.29614 94.7805 7.20264 95.3463 7.20264C95.7864 7.20264 96.0694 7.20264 96.2265 7.23381C96.3837 7.26497 96.5409 7.26497 96.7295 7.29614V10.8494C96.478 10.8182 96.1951 10.7559 95.9436 10.7247C95.6607 10.6935 95.4092 10.6624 95.1577 10.6624C94.529 10.6624 93.9317 10.7871 93.3973 11.0364C92.8314 11.2858 92.3599 11.6598 91.9512 12.1273C91.5425 12.626 91.2282 13.2182 90.9767 13.9039C90.7252 14.6208 90.6309 15.4312 90.6309 16.3663V24.2832H86.9214V7.639H86.89Z" fill="#231F20"/><path d="M101.759 16.9273C101.759 17.5819 101.854 18.2052 102.042 18.7974C102.231 19.3896 102.514 19.9195 102.86 20.3871C103.237 20.8234 103.708 21.1974 104.243 21.478C104.809 21.7585 105.469 21.8832 106.255 21.8832C107.324 21.8832 108.204 21.665 108.864 21.1974C109.524 20.7299 110.027 20.0442 110.341 19.1091H113.862C113.674 20.013 113.328 20.8234 112.856 21.5403C112.385 22.2572 111.819 22.8494 111.127 23.3169C110.467 23.7845 109.713 24.1585 108.864 24.4078C108.015 24.6572 107.166 24.7819 106.255 24.7819C104.934 24.7819 103.771 24.5637 102.734 24.1273C101.728 23.6909 100.848 23.0987 100.156 22.3195C99.4645 21.5403 98.9301 20.6364 98.5529 19.5455C98.2071 18.4858 98.0184 17.3013 98.0184 15.9922C98.0184 14.8078 98.2071 13.6858 98.5843 12.626C98.9615 11.5663 99.4959 10.6312 100.219 9.82082C100.911 9.01043 101.759 8.38705 102.765 7.91952C103.771 7.45199 104.903 7.20264 106.129 7.20264C107.449 7.20264 108.644 7.48316 109.681 8.01303C110.719 8.57407 111.599 9.29095 112.291 10.1948C112.982 11.0987 113.485 12.1273 113.799 13.3117C114.114 14.4961 114.208 15.6806 114.051 16.9273H101.759ZM110.404 14.4961C110.373 13.9039 110.247 13.3429 110.027 12.813C109.807 12.2832 109.524 11.8156 109.178 11.4104C108.833 11.0052 108.392 10.6935 107.889 10.4442C107.386 10.1948 106.821 10.0702 106.192 10.0702C105.532 10.0702 104.966 10.1948 104.431 10.413C103.897 10.6312 103.457 10.9429 103.08 11.3481C102.702 11.7533 102.388 12.2208 102.168 12.7507C101.948 13.2806 101.822 13.8728 101.791 14.4961H110.404Z" fill="#231F20"/><path d="M114.491 6.61035C115.246 6.61035 115.906 7.20256 115.906 8.01295C115.906 8.82334 115.246 9.41555 114.491 9.41555C113.705 9.41555 113.076 8.82334 113.076 8.01295C113.076 7.20256 113.737 6.61035 114.491 6.61035ZM114.491 9.19736C115.151 9.19736 115.654 8.66749 115.654 8.01295C115.654 7.3584 115.151 6.82853 114.491 6.82853C113.831 6.82853 113.328 7.3584 113.328 8.01295C113.328 8.66749 113.831 9.19736 114.491 9.19736ZM113.957 7.17139H114.585C114.963 7.17139 115.151 7.32723 115.151 7.63892C115.151 7.91944 114.963 8.04412 114.711 8.07529L115.183 8.79217H114.9L114.46 8.07529H114.177V8.79217H113.925V7.17139H113.957ZM114.208 7.88827H114.491C114.711 7.88827 114.931 7.88827 114.931 7.60775C114.931 7.38957 114.743 7.3584 114.554 7.3584H114.208V7.88827Z" fill="#231F20"/></svg>